<svg xmlns="http://www.w3.org/2000/svg" xml:space="preserve" width="2000" height="1500" data-id="lg_WAHMtOxcA8Y8xdHOmn" data-version="1" viewBox="0 0 2000 1500"><path fill="#2168ba" stroke="transparent" d="M0 0h2000v1500H0z"/><g data-padding="20"><g transform="translate(-1133.62 -846.29)scale(2.0782)"><path fill="none" stroke="#99acff" stroke-width="6.88" d="M1026.667 556.912a236 236 0 1 0 0 472 236 236 0 1 0 0-472Z" paint-order="stroke"/><rect width="560" height="247.187" x="346.667" y="246.608" fill="none" rx="0" ry="0" transform="translate(400.5 422.33)"/><path fill="#fff" d="M874.877 778.332h-22.38v-88.63h22.38Zm39.25-33.13h-43.88v-18.87h43.88Zm2-36.62h-45.88v-18.88h45.88Zm28.01 69.75h-22.88l34.38-88.63h21.62l34 88.63h-23.37l-25.63-74.5h8.13Zm46.87-15.5h-48.87v-17.75h48.87Zm51.88 15.5h-22.38v-88.63h22.38Zm38.37-15.5h-27l42.75-57.63h27Zm41.75 15.5h-68.75v-15.5l13.38-3.25h55.37Zm-12.5-69.88h-54v-18.75h67.5v15.5Zm61.75 71.25q-11.25 0-19.81-4.68-8.56-4.69-13.31-13.07-4.75-8.37-4.75-19v-53.25h22.25v54.88q0 4.75 2.06 8.19 2.06 3.43 5.63 5.25 3.56 1.81 7.93 1.81 4.5 0 7.88-1.81 3.37-1.82 5.37-5.19 2-3.38 2-8.13v-55h22.5v53.38q0 10.62-4.75 18.94-4.75 8.31-13.18 13-8.44 4.68-19.82 4.68m-378.96 68.69h-19.13v-16h16.88q5.5 0 8.43-2.69 2.94-2.68 2.94-7.31 0-4.5-2.94-7.31-2.93-2.81-8.43-2.81h-16.88v-16.63h20q9 0 15.81 3.38 6.82 3.37 10.69 9.25 3.88 5.87 3.88 13.75 0 7.87-3.94 13.81t-10.94 9.25-16.37 3.31m-14.5 35.88h-22.38v-88.63h22.38Zm51.5 0h-25.88l-25.75-38 20.13-4.88Zm25.37 0h-22.87l34.37-88.63h21.63l34 88.63h-23.38l-25.62-74.5h8.12Zm46.88-15.5h-48.88v-17.75h48.88Zm51.87 15.5h-22.37v-88.63h22.37Zm54.25 0h-22.37v-88.63h22.37Zm-14.25-36h-49.62v-18.75h49.62Zm52.25 36h-22.25v-88.63h16.13l34 51.38h-7.63l33.88-51.38h16.12v88.63h-22.12v-51.63l3.5 1-20.38 30.63h-14.5l-20.25-30.63 3.5-1Zm102.38 0h-22.88l34.38-88.63h21.62l34 88.63h-23.37l-25.63-74.5h8.13Zm46.87-15.5h-48.87v-17.75h48.87Zm51.87 15.5h-22.38v-88.63h15.63l6.75 18.13Zm45.12-22.88-6.37 22.88-51.75-65.75 6.25-22.88Zm10.25 22.88h-16.62l-5.75-18.63v-70h22.37Z"/><path fill="#99acff" d="M1059.14 563.957a9.253 9.253 0 0 0 18.36-1.62c0-5.103-4.131-9.261-9.234-9.261a9.24 9.24 0 0 0-9.1 7.614h-65.204a9.24 9.24 0 0 0-18.333 1.62 9.23 9.23 0 0 0 9.234 9.234 9.24 9.24 0 0 0 6.534-2.7 9.05 9.05 0 0 0 2.565-4.914h65.178Z"/><path fill="#99acff" d="M1085.95 581.156a9.26 9.26 0 0 0-13.094 0 9.2 9.2 0 0 0-2.565 4.94h-15.174a6.22 6.22 0 0 1-6.156-6.21 9.45 9.45 0 0 0-9.396-9.45h-26.082c-5.184.028-9.396 4.267-9.396 9.45 0 3.403-2.754 6.184-6.156 6.21h-15.147a9.2 9.2 0 0 0-2.565-4.94 9.234 9.234 0 0 0-13.041.027 9.234 9.234 0 0 0 .027 13.04 9.223 9.223 0 0 0 12.987 0 8.98 8.98 0 0 0 2.565-4.886h15.174c5.184-.027 9.396-4.266 9.396-9.45 0-3.402 2.754-6.183 6.156-6.21h26.082c3.402.027 6.156 2.808 6.156 6.21a9.45 9.45 0 0 0 9.396 9.45h15.174a8.98 8.98 0 0 0 2.565 4.887 9.25 9.25 0 0 0 13.095-13.068"/><path fill="#99acff" d="M1063.136 598.868a9.2 9.2 0 0 0-6.561 2.727 9.23 9.23 0 0 0-2.673 5.832h-2.187a8.2 8.2 0 0 1-7.641-5.373l-5.05-13.635a11.475 11.475 0 0 0-10.691-7.452h-3.51c-4.752 0-9.018 2.97-10.692 7.425l-5.05 13.662a8.235 8.235 0 0 1-7.64 5.373h-2.187a9.17 9.17 0 1 0-18.28 1.485 9.17 9.17 0 0 0 15.607 5.75 9.6 9.6 0 0 0 2.349-3.995h2.484a11.47 11.47 0 0 0 10.692-7.48l5.049-13.634a8.18 8.18 0 0 1 7.64-5.32h3.51a8.14 8.14 0 0 1 7.642 5.32l5.049 13.662a11.475 11.475 0 0 0 10.692 7.479h2.484c.486 1.485 1.269 2.862 2.322 3.996v-.027c1.89 1.755 4.077 2.7 6.56 2.7 5.104.027 9.262-4.104 9.262-9.207a9.213 9.213 0 0 0-9.18-9.288m-82.944-55.323.027-.027a9.2 9.2 0 0 0 2.565-4.941h15.174c3.402.027 6.156 2.808 6.156 6.21a9.45 9.45 0 0 0 9.396 9.45h26.082c5.184-.027 9.396-4.266 9.396-9.45 0-3.402 2.754-6.183 6.156-6.21h15.174a9.2 9.2 0 0 0 2.565 4.94 9.223 9.223 0 0 0 13.068 0 9.223 9.223 0 0 0 0-13.067 9.223 9.223 0 0 0-13.068 0 8.98 8.98 0 0 0-2.565 4.887h-15.174c-5.184.027-9.396 4.266-9.396 9.45 0 3.402-2.754 6.183-6.156 6.21h-26.082a6.22 6.22 0 0 1-6.156-6.21 9.45 9.45 0 0 0-9.396-9.45h-15.174a8.98 8.98 0 0 0-2.565-4.887 9.26 9.26 0 0 0-13.095-.027 9.26 9.26 0 0 0-.027 13.095 9.26 9.26 0 0 0 13.095.027"/><path fill="#99acff" d="M996.53 523.079a9.16 9.16 0 0 0 2.673-5.832h2.187a8.2 8.2 0 0 1 7.64 5.373l5.05 13.635a11.475 11.475 0 0 0 10.692 7.452h3.51c4.752 0 9.018-2.97 10.692-7.425l5.049-13.662a8.235 8.235 0 0 1 7.64-5.373h2.188a9.17 9.17 0 1 0 18.279-1.485 9.17 9.17 0 0 0-15.606-5.751 9.6 9.6 0 0 0-2.35 3.996h-2.483a11.47 11.47 0 0 0-10.692 7.479l-5.05 13.635a8.18 8.18 0 0 1-7.64 5.319h-3.51a8.14 8.14 0 0 1-7.641-5.32l-5.05-13.661a11.475 11.475 0 0 0-10.691-7.48h-2.484c-.486-1.484-1.27-2.861-2.322-3.995v.027c-1.89-1.755-4.077-2.7-6.561-2.7a9.248 9.248 0 0 0-6.534 15.795 9.18 9.18 0 0 0 13.014-.027"/></g><path fill="transparent" stroke="transparent" stroke-width="2.155" d="M397.59 187.5h1206.897v1125H397.591z"/></g></svg>